<?xml version="1.0" encoding="UTF-8" standalone="no"?>
<!-- Created with Inkscape (http://www.inkscape.org/) -->

<svg
   width="80"
   height="80"
   viewBox="0 0 21.166666 21.166667"
   version="1.1"
   id="svg5"
   inkscape:version="1.2.1 (9c6d41e410, 2022-07-14)"
   sodipodi:docname="small rain.svg"
   xmlns:inkscape="http://www.inkscape.org/namespaces/inkscape"
   xmlns:sodipodi="http://sodipodi.sourceforge.net/DTD/sodipodi-0.dtd"
   xmlns="http://www.w3.org/2000/svg"
   xmlns:svg="http://www.w3.org/2000/svg">
  <sodipodi:namedview
     id="namedview7"
     pagecolor="#ffffff"
     bordercolor="#000000"
     borderopacity="0.25"
     inkscape:showpageshadow="2"
     inkscape:pageopacity="0.0"
     inkscape:pagecheckerboard="0"
     inkscape:deskcolor="#d1d1d1"
     inkscape:document-units="mm"
     showgrid="false"
     inkscape:zoom="5.9081369"
     inkscape:cx="27.50444"
     inkscape:cy="27.927586"
     inkscape:window-width="1920"
     inkscape:window-height="1009"
     inkscape:window-x="-8"
     inkscape:window-y="-8"
     inkscape:window-maximized="1"
     inkscape:current-layer="layer1" />
  <defs
     id="defs2" />
  <g
     inkscape:label="Warstwa 1"
     inkscape:groupmode="layer"
     id="layer1">
    <ellipse
       style="fill:#afc6e9;stroke-width:0.248798"
       id="path163"
       cx="-14.834091"
       cy="7.0283642"
       rx="4.6990061"
       ry="3.439008"
       transform="matrix(-1,0,0.0579831,0.99831756,0,0)" />
    <ellipse
       style="fill:#afc6e9;stroke-width:0.282765"
       id="path273"
       cx="-9.7283764"
       cy="4.9680138"
       rx="5.3579068"
       ry="4.1300535"
       transform="scale(-1,1)" />
    <ellipse
       style="fill:#afc6e9;stroke-width:0.403793"
       id="path277"
       cx="-4.8379111"
       cy="7.3199811"
       rx="3.450562"
       ry="3.129781"
       transform="scale(-1,1)" />
    <rect
       style="fill:#afc6e9;stroke-width:0.275549"
       id="rect333"
       width="10.819852"
       height="2.3581727"
       x="4.6818547"
       y="8.0915899" />
    <path
       id="path392"
       style="fill:#afc6e9;stroke-width:0.353354"
       d="m 5.4198742,12.605632 c 0.00733,0.105532 0.064647,0.72675 -0.6963853,0.734285 -0.7206145,0.0071 -0.7037869,-0.673169 -0.6923819,-0.781015 0.013588,-0.128489 0.4785604,-1.093463 0.7468392,-1.361743 0.4154464,0.64894 0.626728,1.189608 0.641928,1.408473 z"
       sodipodi:nodetypes="ssscs" />
    <path
       id="path392-5"
       style="fill:#afc6e9;stroke-width:0.353354"
       d="m 11.038721,18.046196 c 0.0073,0.105532 0.06465,0.72675 -0.696385,0.734285 -0.7206149,0.0071 -0.7037873,-0.673169 -0.6923823,-0.781015 0.013588,-0.128489 0.4785603,-1.093463 0.7468393,-1.361743 0.415447,0.64894 0.626728,1.189608 0.641928,1.408473 z"
       sodipodi:nodetypes="ssscs" />
    <path
       id="path392-64"
       style="fill:#afc6e9;stroke-width:0.353354"
       d="m 5.5305741,18.294997 c 0.00733,0.105532 0.064647,0.72675 -0.6963853,0.734285 -0.7206145,0.0071 -0.7037869,-0.673169 -0.6923819,-0.781015 0.013588,-0.128489 0.4785604,-1.093463 0.7468392,-1.361743 0.4154464,0.64894 0.626728,1.189608 0.641928,1.408473 z"
       sodipodi:nodetypes="ssscs" />
    <path
       id="path392-6"
       style="fill:#afc6e9;stroke-width:0.353354"
       d="m 7.9954301,15.383899 c 0.00733,0.105532 0.064647,0.72675 -0.6963853,0.734285 -0.7206145,0.0071 -0.7037869,-0.673169 -0.6923819,-0.781015 0.013588,-0.128489 0.4785604,-1.093463 0.7468392,-1.361743 0.4154464,0.64894 0.626728,1.189608 0.641928,1.408473 z"
       sodipodi:nodetypes="ssscs" />
    <path
       id="path392-2"
       style="fill:#afc6e9;stroke-width:0.353354"
       d="m 10.835075,12.68598 c 0.0073,0.105532 0.06465,0.72675 -0.696385,0.734285 -0.7206155,0.0071 -0.7037875,-0.673169 -0.6923825,-0.781015 0.01359,-0.128489 0.4785601,-1.093463 0.7468395,-1.361743 0.415446,0.64894 0.626728,1.189608 0.641928,1.408473 z"
       sodipodi:nodetypes="ssscs" />
    <path
       id="path392-57"
       style="fill:#afc6e9;stroke-width:0.353354"
       d="m 13.688367,15.186377 c 0.0073,0.105532 0.06465,0.72675 -0.696385,0.734285 -0.720615,0.0071 -0.703787,-0.673169 -0.692382,-0.781015 0.01359,-0.128489 0.47856,-1.093463 0.746839,-1.361743 0.415446,0.64894 0.626728,1.189608 0.641928,1.408473 z"
       sodipodi:nodetypes="ssscs" />
    <path
       id="path392-69"
       style="fill:#afc6e9;stroke-width:0.353354"
       d="m 15.81327,18.429375 c 0.0073,0.105532 0.06465,0.72675 -0.696385,0.734285 -0.720614,0.0071 -0.703787,-0.673169 -0.692382,-0.781015 0.01359,-0.128489 0.47856,-1.093463 0.746839,-1.361743 0.415447,0.64894 0.626728,1.189608 0.641928,1.408473 z"
       sodipodi:nodetypes="ssscs" />
    <path
       id="path392-0"
       style="fill:#afc6e9;stroke-width:0.353354"
       d="m 16.229514,12.531843 c 0.0073,0.105532 0.06465,0.72675 -0.696385,0.734285 -0.720614,0.0071 -0.703787,-0.673169 -0.692382,-0.781015 0.01359,-0.128489 0.478561,-1.093463 0.746839,-1.361743 0.415447,0.64894 0.626728,1.189608 0.641928,1.408473 z"
       sodipodi:nodetypes="ssscs" />
  </g>
</svg>
