<?xml version="1.0" encoding="UTF-8" standalone="no"?>
<!-- Created with Inkscape (http://www.inkscape.org/) -->

<svg
   width="80"
   height="80"
   viewBox="0 0 21.166666 21.166667"
   version="1.1"
   id="svg5"
   inkscape:version="1.2.1 (9c6d41e410, 2022-07-14)"
   sodipodi:docname="snow_and_rain.svg"
   xmlns:inkscape="http://www.inkscape.org/namespaces/inkscape"
   xmlns:sodipodi="http://sodipodi.sourceforge.net/DTD/sodipodi-0.dtd"
   xmlns="http://www.w3.org/2000/svg"
   xmlns:svg="http://www.w3.org/2000/svg">
  <sodipodi:namedview
     id="namedview7"
     pagecolor="#ffffff"
     bordercolor="#000000"
     borderopacity="0.25"
     inkscape:showpageshadow="2"
     inkscape:pageopacity="0.0"
     inkscape:pagecheckerboard="0"
     inkscape:deskcolor="#d1d1d1"
     inkscape:document-units="mm"
     showgrid="false"
     inkscape:zoom="8.3553673"
     inkscape:cx="39.076678"
     inkscape:cy="41.17114"
     inkscape:window-width="1920"
     inkscape:window-height="1009"
     inkscape:window-x="-8"
     inkscape:window-y="-8"
     inkscape:window-maximized="1"
     inkscape:current-layer="layer1" />
  <defs
     id="defs2" />
  <g
     inkscape:label="Warstwa 1"
     inkscape:groupmode="layer"
     id="layer1">
    <path
       id="path392-64-8"
       style="fill:#afc6e9;stroke-width:0.305251"
       d="m 16.369348,16.884307 c 0.0063,0.09117 0.05585,0.627815 -0.601584,0.634324 -0.622514,0.0061 -0.607977,-0.581528 -0.598125,-0.674692 0.01174,-0.110997 0.413412,-0.944606 0.645169,-1.176364 0.35889,0.560597 0.541409,1.027662 0.55454,1.216732 z"
       sodipodi:nodetypes="ssscs" />
    <path
       id="path392-64"
       style="fill:#afc6e9;stroke-width:0.305251"
       d="m 8.4211131,16.675119 c 0.00633,0.09117 0.055846,0.627815 -0.6015838,0.634324 -0.6225145,0.0061 -0.6079777,-0.581528 -0.5981253,-0.674692 0.011738,-0.110997 0.4134122,-0.944606 0.6451692,-1.176364 0.3588901,0.560597 0.5414092,1.027662 0.5545399,1.216732 z"
       sodipodi:nodetypes="ssscs" />
    <path
       id="path392-64-4"
       style="fill:#afc6e9;stroke-width:0.305251"
       d="m 13.202721,14.287673 c 0.0063,0.09117 0.05585,0.627815 -0.601584,0.634324 -0.622514,0.0061 -0.607978,-0.581528 -0.598125,-0.674692 0.01174,-0.110997 0.413412,-0.944606 0.645169,-1.176364 0.35889,0.560597 0.541409,1.027662 0.55454,1.216732 z"
       sodipodi:nodetypes="ssscs" />
    <rect
       style="fill:#ffffff;stroke-width:0.264583"
       id="rect621-1"
       width="1.979142"
       height="0.36416212"
       x="4.5203605"
       y="18.192274" />
    <rect
       style="fill:#ffffff;stroke-width:0.264583"
       id="rect621-6-3"
       width="1.979142"
       height="0.36416212"
       x="17.376867"
       y="-5.6761804"
       transform="rotate(90)" />
    <rect
       style="fill:#ffffff;stroke-width:0.264583"
       id="rect621-62-7"
       width="1.979142"
       height="0.36416212"
       x="15.89917"
       y="8.9256363"
       transform="rotate(45)" />
    <rect
       style="fill:#ffffff;stroke-width:0.264583"
       id="rect621-62-9-0"
       width="1.979142"
       height="0.36416212"
       x="8.1181469"
       y="-17.093214"
       transform="rotate(135)" />
    <path
       id="path392-64-42"
       style="fill:#afc6e9;stroke-width:0.305251"
       d="m 5.2544862,12.862689 c 0.00633,0.09117 0.055846,0.627816 -0.6015838,0.634324 -0.6225145,0.0061 -0.6079777,-0.581527 -0.5981253,-0.674692 0.011738,-0.110997 0.4134122,-0.944606 0.6451692,-1.176364 0.3588901,0.560598 0.5414092,1.027662 0.5545399,1.216732 z"
       sodipodi:nodetypes="ssscs" />
    <rect
       style="fill:#ffffff;stroke-width:0.264583"
       id="rect621-3"
       width="1.979142"
       height="0.36416212"
       x="11.170278"
       y="17.62228" />
    <rect
       style="fill:#ffffff;stroke-width:0.264583"
       id="rect621-6-2"
       width="1.979142"
       height="0.36416212"
       x="16.806873"
       y="-12.326097"
       transform="rotate(90)" />
    <rect
       style="fill:#ffffff;stroke-width:0.264583"
       id="rect621-62-2"
       width="1.979142"
       height="0.36416212"
       x="20.198326"
       y="3.8203888"
       transform="rotate(45)" />
    <rect
       style="fill:#ffffff;stroke-width:0.264583"
       id="rect621-62-9-3"
       width="1.979142"
       height="0.36416212"
       x="3.0128999"
       y="-21.39237"
       transform="rotate(135)" />
    <rect
       style="fill:#ffffff;stroke-width:0.264583"
       id="rect621-9"
       width="1.979142"
       height="0.36416212"
       x="15.286893"
       y="12.239015" />
    <rect
       style="fill:#ffffff;stroke-width:0.264583"
       id="rect621-6-9"
       width="1.979142"
       height="0.36416212"
       x="11.423608"
       y="-16.442713"
       transform="rotate(90)" />
    <rect
       style="fill:#ffffff;stroke-width:0.264583"
       id="rect621-62-74"
       width="1.979142"
       height="0.36416212"
       x="19.30267"
       y="-2.897042"
       transform="rotate(45)" />
    <rect
       style="fill:#ffffff;stroke-width:0.264583"
       id="rect621-62-9-1"
       width="1.979142"
       height="0.36416212"
       x="-3.704531"
       y="-20.496714"
       transform="rotate(135)" />
    <ellipse
       style="fill:#afc6e9;stroke-width:0.248798"
       id="path163"
       cx="-14.834091"
       cy="7.0283642"
       rx="4.6990061"
       ry="3.439008"
       transform="matrix(-1,0,0.0579831,0.99831756,0,0)" />
    <ellipse
       style="fill:#afc6e9;stroke-width:0.282765"
       id="path273"
       cx="-9.7283764"
       cy="4.9680138"
       rx="5.3579068"
       ry="4.1300535"
       transform="scale(-1,1)" />
    <ellipse
       style="fill:#afc6e9;stroke-width:0.403793"
       id="path277"
       cx="-4.8379111"
       cy="7.3199811"
       rx="3.450562"
       ry="3.129781"
       transform="scale(-1,1)" />
    <rect
       style="fill:#afc6e9;stroke-width:0.275549"
       id="rect333"
       width="10.819852"
       height="2.3581727"
       x="4.6818547"
       y="8.0915899" />
    <rect
       style="fill:#ffffff;stroke-width:0.264583"
       id="rect621"
       width="1.979142"
       height="0.36416212"
       x="7.8532352"
       y="11.843185" />
    <rect
       style="fill:#ffffff;stroke-width:0.264583"
       id="rect621-6"
       width="1.979142"
       height="0.36416212"
       x="11.027779"
       y="-9.0090551"
       transform="rotate(90)" />
    <rect
       style="fill:#ffffff;stroke-width:0.264583"
       id="rect621-62"
       width="1.979142"
       height="0.36416212"
       x="13.766385"
       y="2.0794539"
       transform="rotate(45)" />
    <rect
       style="fill:#ffffff;stroke-width:0.264583"
       id="rect621-62-9"
       width="1.979142"
       height="0.36416212"
       x="1.2719651"
       y="-14.96043"
       transform="rotate(135)" />
  </g>
</svg>
